# Blender v2.93.1 OBJ File: 'высокий регулятор.blend'
# www.blender.org
mtllib высокий регулятор.mtl
o Cylinder
v 0.000000 -1.000000 -1.000000
v 0.000000 1.000000 -0.625216
v 0.184940 -0.947971 -0.929756
v 0.115627 0.947971 -0.581298
v 0.382683 -1.000000 -0.923880
v 0.239260 1.000000 -0.577625
v 0.555570 -1.000000 -0.831470
v 0.347352 1.000000 -0.519848
v 0.707107 -1.000000 -0.707107
v 0.442095 1.000000 -0.442095
v 0.788209 -0.947971 -0.526664
v 0.492801 0.947971 -0.329279
v 0.923880 -1.000000 -0.382683
v 0.577625 1.000000 -0.239260
v 0.980785 -1.000000 -0.195090
v 0.613203 1.000000 -0.121974
v 1.000000 -1.000000 0.000000
v 0.625216 1.000000 0.000000
v 0.929756 -0.947971 0.184940
v 0.581298 0.947971 0.115627
v 0.923880 -1.000000 0.382683
v 0.577625 1.000000 0.239260
v 0.831470 -1.000000 0.555570
v 0.519848 1.000000 0.347352
v 0.707107 -1.000000 0.707107
v 0.442095 1.000000 0.442095
v 0.526664 -0.947971 0.788209
v 0.329279 0.947971 0.492801
v 0.382683 -1.000000 0.923880
v 0.239260 1.000000 0.577625
v 0.195090 -1.000000 0.980785
v 0.121974 1.000000 0.613203
v -0.000000 -1.000000 1.000000
v -0.000000 1.000000 0.625216
v -0.184940 -0.947971 0.929756
v -0.115627 0.947971 0.581299
v -0.382683 -1.000000 0.923880
v -0.239260 1.000000 0.577625
v -0.555570 -1.000000 0.831470
v -0.347352 1.000000 0.519848
v -0.707107 -1.000000 0.707107
v -0.442095 1.000000 0.442095
v -0.788209 -0.947971 0.526664
v -0.492801 0.947971 0.329279
v -0.923880 -1.000000 0.382684
v -0.577625 1.000000 0.239260
v -0.980785 -1.000000 0.195090
v -0.613203 1.000000 0.121974
v -1.000000 -1.000000 -0.000000
v -0.625216 1.000000 -0.000000
v -0.929756 -0.947971 -0.184940
v -0.581298 0.947971 -0.115628
v -0.923879 -1.000000 -0.382684
v -0.577625 1.000000 -0.239260
v -0.831470 -1.000000 -0.555570
v -0.519849 1.000000 -0.347351
v -0.707107 -1.000000 -0.707107
v -0.442095 1.000000 -0.442095
v -0.526664 -0.947971 -0.788209
v -0.329279 0.947971 -0.492801
v -0.382683 -1.000000 -0.923880
v -0.239260 1.000000 -0.577625
v -0.195090 -1.000000 -0.980785
v -0.121974 1.000000 -0.613203
v 0.103110 1.000000 -0.518368
v 0.000000 1.000000 -0.528523
v 0.202257 1.000000 -0.488292
v 0.293632 1.000000 -0.439451
v 0.373722 1.000000 -0.373722
v 0.439451 1.000000 -0.293632
v 0.488292 1.000000 -0.202257
v 0.518368 1.000000 -0.103110
v 0.528523 1.000000 0.000000
v 0.518368 1.000000 0.103110
v 0.488292 1.000000 0.202257
v 0.439451 1.000000 0.293632
v 0.373722 1.000000 0.373722
v 0.293632 1.000000 0.439451
v 0.202257 1.000000 0.488292
v 0.103110 1.000000 0.518368
v -0.000000 1.000000 0.528523
v -0.103110 1.000000 0.518368
v -0.202257 1.000000 0.488292
v -0.293632 1.000000 0.439451
v -0.373722 1.000000 0.373722
v -0.439451 1.000000 0.293632
v -0.488291 1.000000 0.202257
v -0.518368 1.000000 0.103110
v -0.528523 1.000000 -0.000000
v -0.518368 1.000000 -0.103110
v -0.488291 1.000000 -0.202257
v -0.439451 1.000000 -0.293631
v -0.373722 1.000000 -0.373722
v -0.293632 1.000000 -0.439451
v -0.202257 1.000000 -0.488292
v -0.103110 1.000000 -0.518368
v 0.103110 0.872724 -0.518368
v 0.000000 0.872724 -0.528523
v 0.202257 0.872724 -0.488292
v 0.293632 0.872724 -0.439451
v 0.373722 0.872724 -0.373722
v 0.439451 0.872724 -0.293632
v 0.488292 0.872724 -0.202257
v 0.518368 0.872724 -0.103110
v 0.528523 0.872724 0.000000
v 0.518368 0.872724 0.103110
v 0.488292 0.872724 0.202257
v 0.439451 0.872724 0.293632
v 0.373722 0.872724 0.373722
v 0.293632 0.872724 0.439451
v 0.202257 0.872724 0.488292
v 0.103110 0.872724 0.518368
v -0.000000 0.872724 0.528523
v -0.103110 0.872724 0.518368
v -0.202257 0.872724 0.488292
v -0.293632 0.872724 0.439451
v -0.373722 0.872724 0.373722
v -0.439451 0.872724 0.293632
v -0.488291 0.872724 0.202257
v -0.518368 0.872724 0.103110
v -0.528523 0.872724 -0.000000
v -0.518368 0.872724 -0.103110
v -0.488291 0.872724 -0.202257
v -0.439451 0.872724 -0.293631
v -0.373722 0.872724 -0.373722
v -0.293632 0.872724 -0.439451
v -0.202257 0.872724 -0.488292
v -0.103110 0.872724 -0.518368
v 0.092373 0.872724 -0.464390
v 0.000000 0.872724 -0.473488
v 0.181196 0.872724 -0.437446
v 0.263056 0.872724 -0.393691
v 0.334807 0.872724 -0.334807
v 0.393691 0.872724 -0.263056
v 0.437446 0.872724 -0.181196
v 0.464390 0.872724 -0.092373
v 0.473488 0.872724 0.000000
v 0.464390 0.872724 0.092373
v 0.437446 0.872724 0.181196
v 0.393691 0.872724 0.263056
v 0.334807 0.872724 0.334807
v 0.263056 0.872724 0.393691
v 0.181196 0.872724 0.437446
v 0.092373 0.872724 0.464391
v -0.000000 0.872724 0.473488
v -0.092373 0.872724 0.464391
v -0.181196 0.872724 0.437446
v -0.263056 0.872724 0.393691
v -0.334807 0.872724 0.334807
v -0.393691 0.872724 0.263056
v -0.437446 0.872724 0.181196
v -0.464390 0.872724 0.092373
v -0.473488 0.872724 0.000000
v -0.464390 0.872724 -0.092373
v -0.437446 0.872724 -0.181196
v -0.393691 0.872724 -0.263056
v -0.334807 0.872724 -0.334807
v -0.263056 0.872724 -0.393691
v -0.181196 0.872724 -0.437446
v -0.092373 0.872724 -0.464390
v 0.092373 0.999455 -0.464390
v 0.000000 0.999455 -0.473488
v 0.181196 0.999455 -0.437446
v 0.263056 0.999455 -0.393691
v 0.334807 0.999455 -0.334807
v 0.393691 0.999455 -0.263056
v 0.437446 0.999455 -0.181196
v 0.464390 0.999455 -0.092373
v 0.473488 0.999455 0.000000
v 0.464390 0.999455 0.092373
v 0.437446 0.999455 0.181196
v 0.393691 0.999455 0.263056
v 0.334807 0.999455 0.334807
v 0.263056 0.999455 0.393691
v 0.181196 0.999455 0.437446
v 0.092373 0.999455 0.464391
v -0.000000 0.999455 0.473488
v -0.092373 0.999455 0.464391
v -0.181196 0.999455 0.437446
v -0.263056 0.999455 0.393691
v -0.334807 0.999455 0.334807
v -0.393691 0.999455 0.263056
v -0.437446 0.999455 0.181196
v -0.464390 0.999455 0.092373
v -0.473488 0.999455 0.000000
v -0.464390 0.999455 -0.092373
v -0.437446 0.999455 -0.181196
v -0.393691 0.999455 -0.263056
v -0.334807 0.999455 -0.334807
v -0.263056 0.999455 -0.393691
v -0.181196 0.999455 -0.437446
v -0.092373 0.999455 -0.464390
vt 1.000000 0.500000
vt 1.000000 1.000000
vt 0.968750 1.000000
vt 0.968750 0.500000
vt 0.937500 1.000000
vt 0.937500 0.500000
vt 0.906250 1.000000
vt 0.906250 0.500000
vt 0.875000 1.000000
vt 0.875000 0.500000
vt 0.843750 1.000000
vt 0.843750 0.500000
vt 0.812500 1.000000
vt 0.812500 0.500000
vt 0.781250 1.000000
vt 0.781250 0.500000
vt 0.750000 1.000000
vt 0.750000 0.500000
vt 0.718750 1.000000
vt 0.718750 0.500000
vt 0.687500 1.000000
vt 0.687500 0.500000
vt 0.656250 1.000000
vt 0.656250 0.500000
vt 0.625000 1.000000
vt 0.625000 0.500000
vt 0.593750 1.000000
vt 0.593750 0.500000
vt 0.562500 1.000000
vt 0.562500 0.500000
vt 0.531250 1.000000
vt 0.531250 0.500000
vt 0.500000 1.000000
vt 0.500000 0.500000
vt 0.468750 1.000000
vt 0.468750 0.500000
vt 0.437500 1.000000
vt 0.437500 0.500000
vt 0.406250 1.000000
vt 0.406250 0.500000
vt 0.375000 1.000000
vt 0.375000 0.500000
vt 0.343750 1.000000
vt 0.343750 0.500000
vt 0.312500 1.000000
vt 0.312500 0.500000
vt 0.281250 1.000000
vt 0.281250 0.500000
vt 0.250000 1.000000
vt 0.250000 0.500000
vt 0.218750 1.000000
vt 0.218750 0.500000
vt 0.187500 1.000000
vt 0.187500 0.500000
vt 0.156250 1.000000
vt 0.156250 0.500000
vt 0.125000 1.000000
vt 0.125000 0.500000
vt 0.093750 1.000000
vt 0.093750 0.500000
vt 0.062500 1.000000
vt 0.062500 0.500000
vt 0.843750 1.000000
vt 0.812500 1.000000
vt 0.031250 1.000000
vt 0.031250 0.500000
vt 0.000000 1.000000
vt 0.000000 0.500000
vt 0.750000 0.490000
vt 0.796822 0.485388
vt 0.841844 0.471731
vt 0.883337 0.449553
vt 0.919706 0.419706
vt 0.949553 0.383337
vt 0.971731 0.341844
vt 0.985388 0.296822
vt 0.990000 0.250000
vt 0.985388 0.203178
vt 0.971731 0.158156
vt 0.949553 0.116663
vt 0.919706 0.080294
vt 0.883337 0.050447
vt 0.841844 0.028269
vt 0.796822 0.014612
vt 0.750000 0.010000
vt 0.703178 0.014612
vt 0.658156 0.028269
vt 0.616663 0.050447
vt 0.580294 0.080294
vt 0.550447 0.116663
vt 0.528269 0.158156
vt 0.514612 0.203178
vt 0.510000 0.250000
vt 0.514612 0.296822
vt 0.528269 0.341844
vt 0.550447 0.383337
vt 0.580294 0.419706
vt 0.616663 0.449553
vt 0.658156 0.471731
vt 0.703178 0.485388
vt 0.937500 1.000000
vt 0.968750 1.000000
vt 0.968750 1.000000
vt 0.937500 1.000000
vt 0.562500 1.000000
vt 0.531250 1.000000
vt 0.281250 1.000000
vt 0.250000 1.000000
vt 0.687500 1.000000
vt 0.656250 1.000000
vt 0.406250 1.000000
vt 0.375000 1.000000
vt 0.125000 1.000000
vt 0.093750 1.000000
vt 0.781250 1.000000
vt 0.500000 1.000000
vt 0.218750 1.000000
vt 0.906250 1.000000
vt 0.625000 1.000000
vt 0.343750 1.000000
vt 0.062500 1.000000
vt 0.750000 1.000000
vt 0.468750 1.000000
vt 0.187500 1.000000
vt 0.875000 1.000000
vt 0.593750 1.000000
vt 0.312500 1.000000
vt 0.031250 1.000000
vt 0.718750 1.000000
vt 0.437500 1.000000
vt 0.156250 1.000000
vt 1.000000 1.000000
vt 0.000000 1.000000
vt 0.843750 1.000000
vt 0.875000 1.000000
vt 0.875000 1.000000
vt 0.843750 1.000000
vt 0.125000 1.000000
vt 0.093750 1.000000
vt 0.531250 1.000000
vt 0.500000 1.000000
vt 0.906250 1.000000
vt 0.062500 1.000000
vt 0.468750 1.000000
vt 0.031250 1.000000
vt 0.437500 1.000000
vt 0.000000 1.000000
vt 0.406250 1.000000
vt 0.812500 1.000000
vt 0.375000 1.000000
vt 0.781250 1.000000
vt 0.343750 1.000000
vt 0.750000 1.000000
vt 0.312500 1.000000
vt 0.718750 1.000000
vt 0.281250 1.000000
vt 0.687500 1.000000
vt 0.250000 1.000000
vt 0.656250 1.000000
vt 0.218750 1.000000
vt 0.625000 1.000000
vt 0.187500 1.000000
vt 0.593750 1.000000
vt 0.156250 1.000000
vt 0.562500 1.000000
vt 1.000000 1.000000
vt 0.750000 1.000000
vt 0.781250 1.000000
vt 0.781250 1.000000
vt 0.750000 1.000000
vt 0.031250 1.000000
vt 0.000000 1.000000
vt 0.437500 1.000000
vt 0.406250 1.000000
vt 0.812500 1.000000
vt 0.375000 1.000000
vt 0.343750 1.000000
vt 0.312500 1.000000
vt 0.718750 1.000000
vt 0.281250 1.000000
vt 0.687500 1.000000
vt 0.250000 1.000000
vt 0.656250 1.000000
vt 0.218750 1.000000
vt 0.625000 1.000000
vt 0.187500 1.000000
vt 0.593750 1.000000
vt 0.156250 1.000000
vt 0.562500 1.000000
vt 1.000000 1.000000
vt 0.968750 1.000000
vt 0.125000 1.000000
vt 0.531250 1.000000
vt 0.937500 1.000000
vt 0.093750 1.000000
vt 0.500000 1.000000
vt 0.906250 1.000000
vt 0.062500 1.000000
vt 0.468750 1.000000
vt 0.296822 0.485388
vt 0.250000 0.490000
vt 0.203178 0.485388
vt 0.158156 0.471731
vt 0.116663 0.449553
vt 0.080294 0.419706
vt 0.050447 0.383337
vt 0.028269 0.341844
vt 0.014612 0.296822
vt 0.010000 0.250000
vt 0.014612 0.203178
vt 0.028269 0.158156
vt 0.050447 0.116663
vt 0.080294 0.080294
vt 0.116663 0.050447
vt 0.158156 0.028269
vt 0.203178 0.014612
vt 0.250000 0.010000
vt 0.296822 0.014612
vt 0.341844 0.028269
vt 0.383337 0.050447
vt 0.419706 0.080294
vt 0.449553 0.116663
vt 0.471731 0.158156
vt 0.485388 0.203178
vt 0.490000 0.250000
vt 0.485388 0.296822
vt 0.471731 0.341844
vt 0.449553 0.383337
vt 0.419706 0.419706
vt 0.383337 0.449553
vt 0.341844 0.471731
vt 0.343750 1.000000
vt 0.312500 1.000000
vt 0.718750 1.000000
vt 0.281250 1.000000
vt 0.687500 1.000000
vt 0.250000 1.000000
vt 0.656250 1.000000
vt 0.218750 1.000000
vt 0.625000 1.000000
vt 0.187500 1.000000
vt 0.593750 1.000000
vt 0.156250 1.000000
vt 0.562500 1.000000
vt 1.000000 1.000000
vt 0.968750 1.000000
vt 0.125000 1.000000
vt 0.531250 1.000000
vt 0.937500 1.000000
vt 0.093750 1.000000
vt 0.500000 1.000000
vt 0.906250 1.000000
vt 0.062500 1.000000
vt 0.468750 1.000000
vt 0.875000 1.000000
vt 0.031250 1.000000
vt 0.437500 1.000000
vt 0.843750 1.000000
vt 0.000000 1.000000
vt 0.406250 1.000000
vt 0.812500 1.000000
vt 0.375000 1.000000
vn 0.3495 0.1770 -0.9201
vn 0.0292 0.1770 -0.9838
vn 0.4634 0.1833 -0.8670
vn 0.6236 0.1833 -0.7599
vn 0.8977 0.1770 -0.4035
vn 0.7163 0.1770 -0.6750
vn 0.9407 0.1833 -0.2854
vn 0.9783 0.1833 -0.0964
vn 0.9201 0.1770 0.3495
vn 0.9838 0.1770 0.0292
vn 0.8670 0.1833 0.4634
vn 0.7599 0.1833 0.6236
vn 0.4035 0.1770 0.8977
vn 0.6750 0.1770 0.7163
vn 0.2854 0.1833 0.9407
vn 0.0964 0.1833 0.9783
vn -0.3495 0.1770 0.9201
vn -0.0292 0.1770 0.9838
vn -0.4634 0.1833 0.8670
vn -0.6236 0.1833 0.7599
vn -0.8977 0.1770 0.4035
vn -0.7163 0.1770 0.6750
vn -0.9407 0.1833 0.2854
vn -0.9783 0.1833 0.0964
vn -0.9201 0.1770 -0.3495
vn -0.9838 0.1770 -0.0292
vn -0.8670 0.1833 -0.4634
vn -0.7599 0.1833 -0.6236
vn -0.4035 0.1770 -0.8977
vn -0.6750 0.1770 -0.7163
vn 0.1458 0.9173 -0.3706
vn -0.2854 0.1833 -0.9407
vn -0.0964 0.1833 -0.9783
vn -0.0000 -1.0000 -0.0000
vn -0.2903 0.0000 0.9569
vn 0.0000 1.0000 0.0000
vn -0.1589 0.9173 -0.3651
vn 0.0071 0.9173 -0.3981
vn -0.2765 0.9173 -0.2865
vn -0.3981 0.9173 -0.0071
vn -0.3706 0.9173 -0.1458
vn -0.2865 0.9173 0.2765
vn -0.3651 0.9173 0.1589
vn -0.0071 0.9173 0.3981
vn -0.1458 0.9173 0.3706
vn 0.2765 0.9173 0.2865
vn 0.1589 0.9173 0.3651
vn 0.3981 0.9173 0.0071
vn 0.3706 0.9173 0.1458
vn 0.2865 0.9173 -0.2765
vn 0.3651 0.9173 -0.1589
vn 0.6344 0.0000 0.7730
vn -0.0980 0.0000 -0.9952
vn -0.4714 0.0000 0.8819
vn 0.4714 0.0000 0.8819
vn 0.0980 0.0000 -0.9952
vn -0.6344 0.0000 0.7730
vn 0.2903 0.0000 0.9569
vn 0.2903 0.0000 -0.9569
vn -0.7730 0.0000 0.6344
vn 0.0980 0.0000 0.9952
vn 0.4714 0.0000 -0.8819
vn -0.8819 0.0000 0.4714
vn 0.6344 0.0000 -0.7730
vn -0.9569 0.0000 0.2903
vn 0.7730 0.0000 -0.6344
vn -0.9952 0.0000 0.0980
vn 0.8819 0.0000 -0.4714
vn -0.9952 0.0000 -0.0980
vn 0.9569 0.0000 -0.2903
vn -0.9569 0.0000 -0.2903
vn 0.9952 0.0000 -0.0980
vn -0.8819 0.0000 -0.4714
vn 0.9952 0.0000 0.0980
vn -0.7730 0.0000 -0.6344
vn 0.9569 0.0000 0.2903
vn -0.6344 0.0000 -0.7730
vn 0.8819 0.0000 0.4714
vn -0.4714 0.0000 -0.8819
vn -0.0980 0.0000 0.9952
vn 0.7730 0.0000 0.6344
vn -0.2903 0.0000 -0.9569
usemtl None
s off
f 1/1/1 2/2/1 4/3/1 3/4/1
f 3/4/2 4/3/2 6/5/2 5/6/2
f 5/6/3 6/5/3 8/7/3 7/8/3
f 7/8/4 8/7/4 10/9/4 9/10/4
f 9/10/5 10/9/5 12/11/5 11/12/5
f 11/12/6 12/11/6 14/13/6 13/14/6
f 13/14/7 14/13/7 16/15/7 15/16/7
f 15/16/8 16/15/8 18/17/8 17/18/8
f 17/18/9 18/17/9 20/19/9 19/20/9
f 19/20/10 20/19/10 22/21/10 21/22/10
f 21/22/11 22/21/11 24/23/11 23/24/11
f 23/24/12 24/23/12 26/25/12 25/26/12
f 25/26/13 26/25/13 28/27/13 27/28/13
f 27/28/14 28/27/14 30/29/14 29/30/14
f 29/30/15 30/29/15 32/31/15 31/32/15
f 31/32/16 32/31/16 34/33/16 33/34/16
f 33/34/17 34/33/17 36/35/17 35/36/17
f 35/36/18 36/35/18 38/37/18 37/38/18
f 37/38/19 38/37/19 40/39/19 39/40/19
f 39/40/20 40/39/20 42/41/20 41/42/20
f 41/42/21 42/41/21 44/43/21 43/44/21
f 43/44/22 44/43/22 46/45/22 45/46/22
f 45/46/23 46/45/23 48/47/23 47/48/23
f 47/48/24 48/47/24 50/49/24 49/50/24
f 49/50/25 50/49/25 52/51/25 51/52/25
f 51/52/26 52/51/26 54/53/26 53/54/26
f 53/54/27 54/53/27 56/55/27 55/56/27
f 55/56/28 56/55/28 58/57/28 57/58/28
f 57/58/29 58/57/29 60/59/29 59/60/29
f 59/60/30 60/59/30 62/61/30 61/62/30
f 14/13/31 12/11/31 70/63/31 71/64/31
f 61/62/32 62/61/32 64/65/32 63/66/32
f 63/66/33 64/65/33 2/67/33 1/68/33
f 1/69/34 3/70/34 5/71/34 7/72/34 9/73/34 11/74/34 13/75/34 15/76/34 17/77/34 19/78/34 21/79/34 23/80/34 25/81/34 27/82/34 29/83/34 31/84/34 33/85/34 35/86/34 37/87/34 39/88/34 41/89/34 43/90/34 45/91/34 47/92/34 49/93/34 51/94/34 53/95/34 55/96/34 57/97/34 59/98/34 61/99/34 63/100/34
f 67/101/35 65/102/35 97/103/35 99/104/35
f 32/31/36 30/29/36 79/105/36 80/106/36
f 50/49/36 48/47/36 88/107/36 89/108/36
f 6/5/37 4/3/37 65/102/37 67/101/37
f 24/23/36 22/21/36 75/109/36 76/110/36
f 42/41/36 40/39/36 84/111/36 85/112/36
f 60/59/38 58/57/38 93/113/38 94/114/38
f 16/15/36 14/13/36 71/64/36 72/115/36
f 34/33/36 32/31/36 80/106/36 81/116/36
f 52/51/39 50/49/39 89/108/39 90/117/39
f 8/7/36 6/5/36 67/101/36 68/118/36
f 26/25/36 24/23/36 76/110/36 77/119/36
f 44/43/40 42/41/40 85/112/40 86/120/40
f 62/61/41 60/59/41 94/114/41 95/121/41
f 18/17/36 16/15/36 72/115/36 73/122/36
f 36/35/42 34/33/42 81/116/42 82/123/42
f 54/53/43 52/51/43 90/117/43 91/124/43
f 10/9/36 8/7/36 68/118/36 69/125/36
f 28/27/44 26/25/44 77/119/44 78/126/44
f 46/45/45 44/43/45 86/120/45 87/127/45
f 64/65/36 62/61/36 95/121/36 96/128/36
f 20/19/46 18/17/46 73/122/46 74/129/46
f 38/37/47 36/35/47 82/123/47 83/130/47
f 56/55/36 54/53/36 91/124/36 92/131/36
f 12/11/48 10/9/48 69/125/48 70/63/48
f 30/29/49 28/27/49 78/126/49 79/105/49
f 48/47/36 46/45/36 87/127/36 88/107/36
f 4/3/50 2/2/50 66/132/50 65/102/50
f 2/67/36 64/65/36 96/128/36 66/133/36
f 22/21/51 20/19/51 74/129/51 75/109/51
f 40/39/36 38/37/36 83/130/36 84/111/36
f 58/57/36 56/55/36 92/131/36 93/113/36
f 102/134/36 101/135/36 133/136/36 134/137/36
f 94/114/52 93/113/52 125/138/52 126/139/52
f 81/116/53 80/106/53 112/140/53 113/141/53
f 68/118/54 67/101/54 99/104/54 100/142/54
f 95/121/55 94/114/55 126/139/55 127/143/55
f 82/123/56 81/116/56 113/141/56 114/144/56
f 69/125/57 68/118/57 100/142/57 101/135/57
f 96/128/58 95/121/58 127/143/58 128/145/58
f 83/130/59 82/123/59 114/144/59 115/146/59
f 70/63/60 69/125/60 101/135/60 102/134/60
f 66/133/61 96/128/61 128/145/61 98/147/61
f 84/111/62 83/130/62 115/146/62 116/148/62
f 71/64/63 70/63/63 102/134/63 103/149/63
f 85/112/64 84/111/64 116/148/64 117/150/64
f 72/115/65 71/64/65 103/149/65 104/151/65
f 86/120/66 85/112/66 117/150/66 118/152/66
f 73/122/67 72/115/67 104/151/67 105/153/67
f 87/127/68 86/120/68 118/152/68 119/154/68
f 74/129/69 73/122/69 105/153/69 106/155/69
f 88/107/70 87/127/70 119/154/70 120/156/70
f 75/109/71 74/129/71 106/155/71 107/157/71
f 89/108/72 88/107/72 120/156/72 121/158/72
f 76/110/73 75/109/73 107/157/73 108/159/73
f 90/117/74 89/108/74 121/158/74 122/160/74
f 77/119/75 76/110/75 108/159/75 109/161/75
f 91/124/76 90/117/76 122/160/76 123/162/76
f 78/126/77 77/119/77 109/161/77 110/163/77
f 92/131/78 91/124/78 123/162/78 124/164/78
f 79/105/79 78/126/79 110/163/79 111/165/79
f 65/102/80 66/132/80 98/166/80 97/103/80
f 93/113/81 92/131/81 124/164/81 125/138/81
f 80/106/82 79/105/82 111/165/82 112/140/82
f 137/167/72 136/168/72 168/169/72 169/170/72
f 98/147/36 128/145/36 160/171/36 130/172/36
f 116/148/36 115/146/36 147/173/36 148/174/36
f 103/149/36 102/134/36 134/137/36 135/175/36
f 117/150/36 116/148/36 148/174/36 149/176/36
f 104/151/36 103/149/36 135/175/36 136/168/36
f 118/152/36 117/150/36 149/176/36 150/177/36
f 105/153/36 104/151/36 136/168/36 137/167/36
f 119/154/36 118/152/36 150/177/36 151/178/36
f 106/155/36 105/153/36 137/167/36 138/179/36
f 120/156/36 119/154/36 151/178/36 152/180/36
f 107/157/36 106/155/36 138/179/36 139/181/36
f 121/158/36 120/156/36 152/180/36 153/182/36
f 108/159/36 107/157/36 139/181/36 140/183/36
f 122/160/36 121/158/36 153/182/36 154/184/36
f 109/161/36 108/159/36 140/183/36 141/185/36
f 123/162/36 122/160/36 154/184/36 155/186/36
f 110/163/36 109/161/36 141/185/36 142/187/36
f 124/164/36 123/162/36 155/186/36 156/188/36
f 111/165/36 110/163/36 142/187/36 143/189/36
f 97/103/36 98/166/36 130/190/36 129/191/36
f 125/138/36 124/164/36 156/188/36 157/192/36
f 112/140/36 111/165/36 143/189/36 144/193/36
f 99/104/36 97/103/36 129/191/36 131/194/36
f 126/139/36 125/138/36 157/192/36 158/195/36
f 113/141/36 112/140/36 144/193/36 145/196/36
f 100/142/36 99/104/36 131/194/36 132/197/36
f 127/143/36 126/139/36 158/195/36 159/198/36
f 114/144/36 113/141/36 145/196/36 146/199/36
f 101/135/36 100/142/36 132/197/36 133/136/36
f 128/145/36 127/143/36 159/198/36 160/171/36
f 115/146/36 114/144/36 146/199/36 147/173/36
f 161/200/36 162/201/36 192/202/36 191/203/36 190/204/36 189/205/36 188/206/36 187/207/36 186/208/36 185/209/36 184/210/36 183/211/36 182/212/36 181/213/36 180/214/36 179/215/36 178/216/36 177/217/36 176/218/36 175/219/36 174/220/36 173/221/36 172/222/36 171/223/36 170/224/36 169/225/36 168/226/36 167/227/36 166/228/36 165/229/36 164/230/36 163/231/36
f 151/178/63 150/177/63 182/232/63 183/233/63
f 138/179/74 137/167/74 169/170/74 170/234/74
f 152/180/65 151/178/65 183/233/65 184/235/65
f 139/181/76 138/179/76 170/234/76 171/236/76
f 153/182/67 152/180/67 184/235/67 185/237/67
f 140/183/78 139/181/78 171/236/78 172/238/78
f 154/184/69 153/182/69 185/237/69 186/239/69
f 141/185/81 140/183/81 172/238/81 173/240/81
f 155/186/71 154/184/71 186/239/71 187/241/71
f 142/187/52 141/185/52 173/240/52 174/242/52
f 156/188/73 155/186/73 187/241/73 188/243/73
f 143/189/55 142/187/55 174/242/55 175/244/55
f 129/191/56 130/190/56 162/245/56 161/246/56
f 157/192/75 156/188/75 188/243/75 189/247/75
f 144/193/58 143/189/58 175/244/58 176/248/58
f 131/194/59 129/191/59 161/246/59 163/249/59
f 158/195/77 157/192/77 189/247/77 190/250/77
f 145/196/61 144/193/61 176/248/61 177/251/61
f 132/197/62 131/194/62 163/249/62 164/252/62
f 159/198/79 158/195/79 190/250/79 191/253/79
f 146/199/80 145/196/80 177/251/80 178/254/80
f 133/136/64 132/197/64 164/252/64 165/255/64
f 160/171/82 159/198/82 191/253/82 192/256/82
f 147/173/35 146/199/35 178/254/35 179/257/35
f 134/137/66 133/136/66 165/255/66 166/258/66
f 130/172/53 160/171/53 192/256/53 162/259/53
f 148/174/54 147/173/54 179/257/54 180/260/54
f 135/175/68 134/137/68 166/258/68 167/261/68
f 149/176/57 148/174/57 180/260/57 181/262/57
f 136/168/70 135/175/70 167/261/70 168/169/70
f 150/177/60 149/176/60 181/262/60 182/232/60
