# Blender v2.93.1 OBJ File: 'квадратная кнопка с кругом.blend'
# www.blender.org
mtllib квадратная кнопка с кругом.mtl
o Cube
v 1.000000 0.105034 -1.000000
v 1.000000 -0.105034 -1.000000
v 1.000000 0.105034 1.000000
v 1.000000 -0.105034 1.000000
v -1.000000 0.105034 -1.000000
v -1.000000 -0.105034 -1.000000
v -1.000000 0.105034 1.000000
v -1.000000 -0.105034 1.000000
v 0.749324 0.105034 0.749324
v -0.749324 0.105034 0.749324
v 0.749324 0.105034 -0.749324
v -0.749324 0.105034 -0.749324
v 0.749324 0.948600 0.749324
v -0.749324 0.948600 0.749324
v 0.749324 0.948600 -0.749324
v -0.749324 0.948600 -0.749324
v 0.000000 0.963742 -0.626727
v 0.122268 0.963742 -0.614685
v 0.239838 0.963742 -0.579020
v 0.348191 0.963742 -0.521104
v 0.443163 0.963742 -0.443163
v 0.521104 0.963742 -0.348191
v 0.579020 0.963742 -0.239838
v 0.614685 0.963742 -0.122268
v 0.626727 0.963742 0.000000
v 0.614685 0.963742 0.122268
v 0.579020 0.963742 0.239838
v 0.521104 0.963742 0.348191
v 0.443163 0.963742 0.443163
v 0.348191 0.963742 0.521104
v 0.239838 0.963742 0.579020
v 0.122268 0.963742 0.614685
v -0.000000 0.963742 0.626727
v -0.122268 0.963742 0.614685
v -0.239838 0.963742 0.579020
v -0.348191 0.963742 0.521104
v -0.443163 0.963742 0.443163
v -0.521104 0.963742 0.348191
v -0.579020 0.963742 0.239838
v -0.614685 0.963742 0.122268
v -0.626727 0.963742 -0.000000
v -0.614685 0.963742 -0.122268
v -0.579020 0.963742 -0.239838
v -0.521104 0.963742 -0.348191
v -0.443163 0.963742 -0.443163
v -0.348191 0.963742 -0.521104
v -0.239838 0.963742 -0.579020
v -0.122268 0.963742 -0.614685
v -0.000000 0.948600 0.626727
v -0.122268 0.948600 0.614685
v -0.239838 0.948600 0.579020
v -0.626727 0.948600 -0.000000
v -0.614685 0.948600 -0.122268
v -0.614685 0.948600 0.122268
v -0.521104 0.948600 0.348191
v -0.521104 0.948600 -0.348191
v -0.579020 0.948600 0.239838
v -0.579020 0.948600 -0.239838
v -0.443163 0.948600 -0.443163
v -0.348191 0.948600 -0.521104
v -0.122268 0.948600 -0.614685
v -0.239838 0.948600 -0.579020
v -0.348191 0.948600 0.521104
v 0.122268 0.948600 -0.614685
v 0.443163 0.948600 -0.443163
v 0.348191 0.948600 -0.521104
v 0.239838 0.948600 -0.579020
v 0.000000 0.948600 -0.626727
v -0.443163 0.948600 0.443163
v 0.348191 0.948600 0.521104
v 0.239838 0.948600 0.579020
v 0.122268 0.948600 0.614685
v 0.521104 0.948600 0.348191
v 0.521104 0.948600 -0.348191
v 0.626727 0.948600 0.000000
v 0.579020 0.948600 0.239838
v 0.614685 0.948600 0.122268
v 0.614685 0.948600 -0.122268
v 0.443163 0.948600 0.443163
v 0.579020 0.948600 -0.239838
vt 0.625000 0.250000
vt 0.625000 0.000000
vt 0.625000 0.000000
vt 0.625000 0.250000
vt 0.375000 0.750000
vt 0.625000 0.750000
vt 0.625000 1.000000
vt 0.375000 1.000000
vt 0.375000 0.000000
vt 0.375000 0.250000
vt 0.125000 0.500000
vt 0.375000 0.500000
vt 0.125000 0.750000
vt 0.625000 0.500000
vt 0.625000 0.500000
vt 0.625000 0.250000
vt 0.625000 0.500000
vt 0.625000 0.750000
vt 0.625000 1.000000
vt 0.823927 0.551073
vt 0.875000 0.500000
vt 0.875000 0.750000
vt 0.625000 0.750000
vt 0.676073 0.698927
vt 0.691916 0.711929
vt 0.709991 0.721590
vt 0.729604 0.727540
vt 0.750000 0.729549
vt 0.770396 0.727540
vt 0.790009 0.721590
vt 0.808084 0.711929
vt 0.823927 0.698927
vt 0.836929 0.683084
vt 0.846590 0.665009
vt 0.852540 0.645396
vt 0.854549 0.625000
vt 0.852540 0.604604
vt 0.846590 0.584991
vt 0.836929 0.566916
vt 0.808084 0.538071
vt 0.790009 0.528410
vt 0.770396 0.522460
vt 0.750000 0.520451
vt 0.729604 0.522460
vt 0.709991 0.528410
vt 0.691916 0.538071
vt 0.676073 0.551073
vt 0.663071 0.566916
vt 0.653410 0.584991
vt 0.647460 0.604604
vt 0.645451 0.625000
vt 0.647460 0.645396
vt 0.653410 0.665009
vt 0.663071 0.683084
vt 0.625000 0.000000
vt 0.625000 1.000000
vt 1.000000 0.936345
vt 1.000000 1.000000
vt 0.968750 1.000000
vt 0.968750 0.936345
vt 0.937500 1.000000
vt 0.937500 0.936345
vt 0.906250 1.000000
vt 0.906250 0.936345
vt 0.875000 1.000000
vt 0.875000 0.936345
vt 0.843750 1.000000
vt 0.843750 0.936345
vt 0.812500 1.000000
vt 0.812500 0.936345
vt 0.781250 1.000000
vt 0.781250 0.936345
vt 0.750000 1.000000
vt 0.750000 0.936345
vt 0.718750 1.000000
vt 0.718750 0.936345
vt 0.687500 1.000000
vt 0.687500 0.936345
vt 0.656250 1.000000
vt 0.656250 0.936345
vt 0.625000 1.000000
vt 0.625000 0.936345
vt 0.593750 1.000000
vt 0.593750 0.936345
vt 0.593750 0.936345
vt 0.562500 1.000000
vt 0.562500 0.936345
vt 0.531250 1.000000
vt 0.531250 0.936345
vt 0.500000 1.000000
vt 0.500000 0.936345
vt 0.468750 1.000000
vt 0.468750 0.936345
vt 0.468750 0.936345
vt 0.437500 1.000000
vt 0.437500 0.936345
vt 0.406250 1.000000
vt 0.406250 0.936345
vt 0.375000 1.000000
vt 0.375000 0.936345
vt 0.343750 1.000000
vt 0.343750 0.936345
vt 0.312500 1.000000
vt 0.312500 0.936345
vt 0.281250 1.000000
vt 0.281250 0.936345
vt 0.250000 1.000000
vt 0.250000 0.936345
vt 0.218750 1.000000
vt 0.218750 0.936345
vt 0.218750 0.936345
vt 0.187500 1.000000
vt 0.187500 0.936345
vt 0.156250 1.000000
vt 0.156250 0.936345
vt 0.125000 1.000000
vt 0.125000 0.936345
vt 0.093750 1.000000
vt 0.093750 0.936345
vt 0.093750 0.936345
vt 0.062500 1.000000
vt 0.062500 0.936345
vt 0.050447 0.383337
vt 0.028269 0.341844
vt 0.014612 0.296822
vt 0.010000 0.250000
vt 0.014612 0.203178
vt 0.028269 0.158156
vt 0.050447 0.116663
vt 0.080294 0.080294
vt 0.116663 0.050447
vt 0.158156 0.028269
vt 0.203178 0.014612
vt 0.250000 0.010000
vt 0.296822 0.014612
vt 0.341844 0.028269
vt 0.383337 0.050447
vt 0.419706 0.080294
vt 0.449553 0.116663
vt 0.471731 0.158156
vt 0.485388 0.203178
vt 0.490000 0.250000
vt 0.485388 0.296822
vt 0.471731 0.341844
vt 0.449553 0.383337
vt 0.419706 0.419706
vt 0.383337 0.449553
vt 0.341844 0.471731
vt 0.296822 0.485388
vt 0.250000 0.490000
vt 0.203178 0.485388
vt 0.158156 0.471731
vt 0.116663 0.449553
vt 0.080294 0.419706
vt 0.031250 1.000000
vt 0.031250 0.936345
vt 0.000000 1.000000
vt 0.000000 0.936345
vn 0.0000 1.0000 0.0000
vn 0.0000 0.0000 1.0000
vn -1.0000 0.0000 0.0000
vn 0.0000 -1.0000 0.0000
vn 1.0000 0.0000 0.0000
vn 0.0000 0.0000 -1.0000
vn 0.0980 0.0000 -0.9952
vn 0.2903 0.0000 -0.9569
vn 0.4714 0.0000 -0.8819
vn 0.6344 0.0000 -0.7730
vn 0.7730 0.0000 -0.6344
vn 0.8819 0.0000 -0.4714
vn 0.9569 0.0000 -0.2903
vn 0.9952 0.0000 -0.0980
vn 0.9952 0.0000 0.0980
vn 0.9569 0.0000 0.2903
vn 0.8819 0.0000 0.4714
vn 0.7730 0.0000 0.6344
vn 0.6344 0.0000 0.7730
vn 0.4714 0.0000 0.8819
vn 0.2903 0.0000 0.9569
vn 0.0980 0.0000 0.9952
vn -0.0980 0.0000 0.9952
vn -0.2903 0.0000 0.9569
vn -0.4714 0.0000 0.8819
vn -0.6344 0.0000 0.7730
vn -0.7730 0.0000 0.6344
vn -0.8819 0.0000 0.4714
vn -0.9569 0.0000 0.2903
vn -0.9952 0.0000 0.0980
vn -0.9952 0.0000 -0.0980
vn -0.9569 0.0000 -0.2903
vn -0.8819 0.0000 -0.4714
vn -0.7730 0.0000 -0.6344
vn -0.6344 0.0000 -0.7730
vn -0.4714 0.0000 -0.8819
vn -0.2903 0.0000 -0.9569
vn -0.0980 0.0000 -0.9952
usemtl Material
s off
f 5/1/1 7/2/1 10/3/1 12/4/1
f 4/5/2 3/6/2 7/7/2 8/8/2
f 8/9/3 7/2/3 5/1/3 6/10/3
f 6/11/4 2/12/4 4/5/4 8/13/4
f 2/12/5 1/14/5 3/6/5 4/5/5
f 6/10/6 5/1/6 1/14/6 2/12/6
f 11/15/6 12/4/6 16/16/6 15/17/6
f 3/6/1 1/14/1 11/15/1 9/18/1
f 1/14/1 5/1/1 12/4/1 11/15/1
f 7/7/1 3/6/1 9/18/1 10/19/1
f 59/20/1 16/21/1 14/22/1 13/23/1 79/24/1 70/25/1 71/26/1 72/27/1 49/28/1 50/29/1 51/30/1 63/31/1 69/32/1 55/33/1 57/34/1 54/35/1 52/36/1 53/37/1 58/38/1 56/39/1
f 79/24/1 13/23/1 15/17/1 16/21/1 59/20/1 60/40/1 62/41/1 61/42/1 68/43/1 64/44/1 67/45/1 66/46/1 65/47/1 74/48/1 80/49/1 78/50/1 75/51/1 77/52/1 76/53/1 73/54/1
f 9/18/5 11/15/5 15/17/5 13/23/5
f 12/4/3 10/3/3 14/55/3 16/16/3
f 10/19/2 9/18/2 13/23/2 14/56/2
f 68/57/7 17/58/7 18/59/7 64/60/7
f 64/60/8 18/59/8 19/61/8 67/62/8
f 67/62/9 19/61/9 20/63/9 66/64/9
f 66/64/10 20/63/10 21/65/10 65/66/10
f 65/66/11 21/65/11 22/67/11 74/68/11
f 74/68/12 22/67/12 23/69/12 80/70/12
f 80/70/13 23/69/13 24/71/13 78/72/13
f 78/72/14 24/71/14 25/73/14 75/74/14
f 75/74/15 25/73/15 26/75/15 77/76/15
f 77/76/16 26/75/16 27/77/16 76/78/16
f 76/78/17 27/77/17 28/79/17 73/80/17
f 73/80/18 28/79/18 29/81/18 79/82/18
f 79/82/19 29/81/19 30/83/19 70/84/19
f 70/85/20 30/83/20 31/86/20 71/87/20
f 71/87/21 31/86/21 32/88/21 72/89/21
f 72/89/22 32/88/22 33/90/22 49/91/22
f 49/91/23 33/90/23 34/92/23 50/93/23
f 50/94/24 34/92/24 35/95/24 51/96/24
f 51/96/25 35/95/25 36/97/25 63/98/25
f 63/98/26 36/97/26 37/99/26 69/100/26
f 37/99/27 38/101/27 55/102/27 69/100/27
f 55/102/28 38/101/28 39/103/28 57/104/28
f 57/104/29 39/103/29 40/105/29 54/106/29
f 54/106/30 40/105/30 41/107/30 52/108/30
f 52/108/31 41/107/31 42/109/31 53/110/31
f 53/111/32 42/109/32 43/112/32 58/113/32
f 58/113/33 43/112/33 44/114/33 56/115/33
f 56/115/34 44/114/34 45/116/34 59/117/34
f 59/117/35 45/116/35 46/118/35 60/119/35
f 60/120/36 46/118/36 47/121/36 62/122/36
f 44/123/1 43/124/1 42/125/1 41/126/1 40/127/1 39/128/1 38/129/1 37/130/1 36/131/1 35/132/1 34/133/1 33/134/1 32/135/1 31/136/1 30/137/1 29/138/1 28/139/1 27/140/1 26/141/1 25/142/1 24/143/1 23/144/1 22/145/1 21/146/1 20/147/1 19/148/1 18/149/1 17/150/1 48/151/1 47/152/1 46/153/1 45/154/1
f 62/122/37 47/121/37 48/155/37 61/156/37
f 61/156/38 48/155/38 17/157/38 68/158/38
