# Blender v2.93.1 OBJ File: 'switchButton.blend'
# www.blender.org
mtllib switchButton.mtl
o Cube.001_Cube.002
v -1.268906 0.209482 0.781555
v -1.268906 1.010998 0.781555
v -1.268906 0.209482 -1.148618
v -1.268906 1.010998 -1.148618
v 1.248877 0.209482 0.781555
v 1.248877 1.010998 0.781555
v 1.248877 0.209482 -1.148618
v 1.248877 1.010998 -1.148618
v 0.829246 0.209482 -1.148618
v 0.409616 0.209482 -1.148618
v -0.010015 0.209482 -1.148618
v -0.429645 0.209482 -1.148618
v -0.849275 0.209482 -1.148618
v -0.849275 1.299706 -1.148618
v -0.429645 1.211923 -1.148618
v -0.010015 1.180884 -1.148618
v 0.409616 1.211923 -1.148618
v 0.829246 1.299706 -1.148618
v -0.849275 0.209482 0.781555
v -0.429645 0.209482 0.781555
v -0.010015 0.209482 0.781555
v 0.409616 0.209482 0.781555
v 0.829246 0.209482 0.781555
v 0.829246 1.299706 0.781555
v 0.409616 1.211923 0.781555
v -0.010015 1.180884 0.781555
v -0.429645 1.211923 0.781555
v -0.849275 1.299706 0.781555
v 0.990325 1.299706 -1.148618
v 1.039061 0.209482 0.781555
v 1.039061 0.209482 -1.148618
v 0.990325 1.299706 0.781555
v -1.059090 0.209482 -1.148618
v -1.010354 1.299706 0.781555
v -1.010354 1.299706 -1.148618
v -1.059090 0.209482 0.781555
v -1.268906 0.209482 -1.148618
v -1.268906 0.209482 -1.148618
v -1.268906 0.209482 0.781555
v -1.268906 0.209482 0.781555
v -1.268906 1.010998 0.781555
v -1.268906 1.010998 0.781555
v -1.268906 1.010998 -1.148618
v -1.268906 1.010998 -1.148618
v -1.059090 0.209482 -1.148618
v 0.990325 1.299706 -1.148618
v 0.990325 1.299706 -1.148618
v 1.248877 1.010998 -1.148618
v 1.248877 1.010998 -1.148618
v 1.248877 0.209482 -1.148618
v 1.248877 0.209482 -1.148618
v 1.248877 0.209482 0.781555
v 1.248877 0.209482 0.781555
v 1.248877 1.010998 0.781555
v 1.248877 1.010998 0.781555
v 1.039061 0.209482 0.781555
v -1.010354 1.299706 0.781555
v -1.010354 1.299706 0.781555
v 1.039061 0.209482 -1.148618
v 0.829246 0.209482 -1.148618
v 0.409616 0.209482 -1.148618
v -0.010015 0.209482 -1.148618
v -0.429645 0.209482 -1.148618
v -0.849275 0.209482 -1.148618
v -1.010354 1.299706 -1.148618
v -1.010354 1.299706 -1.148618
v -0.849275 1.299706 -1.148618
v -0.429645 1.211923 -1.148618
v -0.010015 1.180884 -1.148618
v 0.409616 1.211923 -1.148618
v 0.829246 1.299706 -1.148618
v -1.059090 0.209482 0.781555
v -0.849275 0.209482 0.781555
v -0.429645 0.209482 0.781555
v -0.010015 0.209482 0.781555
v 0.409616 0.209482 0.781555
v 0.829246 0.209482 0.781555
v 0.990325 1.299706 0.781555
v 0.990325 1.299706 0.781555
v 0.829246 1.299706 0.781555
v 0.409616 1.211923 0.781555
v -0.010015 1.180884 0.781555
v -0.429645 1.211923 0.781555
v -0.849275 1.299706 0.781555
vn -1.0000 0.0000 0.0000
vn 0.0000 0.0000 -1.0000
vn 1.0000 0.0000 0.0000
vn 0.0000 0.0000 1.0000
vn 0.0000 -1.0000 0.0000
vn -0.7449 0.6671 0.0000
vn 0.0000 1.0000 0.0000
vn -0.1029 0.9947 0.0000
vn -0.1396 0.9902 0.0000
vn 0.1396 0.9902 0.0000
vn 0.1029 0.9947 0.0000
vn 0.7449 0.6671 0.0000
usemtl None
s 1
f 39//1 41//1 43//1 37//1
f 31//2 46//2 48//2 50//2
f 51//3 49//3 54//3 52//3
f 36//4 57//4 42//4 40//4
f 59//5 7//5 53//5 56//5
f 66//6 44//6 2//6 34//6
f 47//7 71//8 80//8 78//7
f 71//8 70//9 81//9 80//8
f 70//9 69//7 82//7 81//9
f 69//7 68//10 83//10 82//7
f 68//10 14//11 84//11 83//10
f 33//5 64//5 73//5 72//5
f 64//5 63//5 74//5 73//5
f 63//5 62//5 75//5 74//5
f 62//5 61//5 76//5 75//5
f 61//5 60//5 77//5 76//5
f 30//4 79//4 24//4 23//4
f 23//4 24//4 25//4 22//4
f 22//4 25//4 26//4 21//4
f 21//4 26//4 27//4 20//4
f 20//4 27//4 28//4 19//4
f 45//2 65//2 67//2 13//2
f 13//2 67//2 15//2 12//2
f 12//2 15//2 16//2 11//2
f 11//2 16//2 17//2 10//2
f 10//2 17//2 18//2 9//2
f 5//4 55//4 79//4 30//4
f 8//12 29//12 32//12 6//12
f 60//5 59//5 56//5 77//5
f 9//2 18//2 46//2 31//2
f 38//2 4//2 65//2 45//2
f 3//5 33//5 72//5 1//5
f 14//11 35//7 58//7 84//11
f 19//4 28//4 57//4 36//4
o Cube_Cube.001
v -2.000000 -1.000000 1.000000
v -2.000000 1.000000 1.000000
v -2.000000 -1.000000 -1.376093
v -2.000000 1.000000 -1.376093
v 2.000000 -1.000000 1.000000
v 2.000000 1.000000 1.000000
v 2.000000 -1.000000 -1.376093
v 2.000000 1.000000 -1.376093
v -1.551270 1.000000 0.812792
v -1.551270 1.000000 -1.188885
v 1.551270 1.000000 -1.188885
v 1.551270 1.000000 0.812792
v -2.000000 -1.000000 -0.188047
v -2.000000 1.000000 -0.188047
v 2.000000 -1.000000 -0.188047
v 2.000000 1.000000 -0.188047
v -1.551270 1.000000 -0.188047
v 1.551270 1.000000 -0.188047
v -1.551270 -0.782592 -0.188047
v -1.551270 -0.782592 -1.188885
v 1.551270 -0.782592 -1.188885
v 1.551270 -0.782592 -0.188047
v 1.551270 -0.782592 0.812792
v -1.551270 -0.782592 0.812792
vn -1.0000 0.0000 0.0000
vn 0.0000 0.0000 -1.0000
vn 1.0000 0.0000 0.0000
vn 0.0000 0.0000 1.0000
vn 0.0000 -1.0000 0.0000
vn 0.0000 1.0000 0.0000
usemtl None
s off
f 97//13 98//13 88//13 87//13
f 87//14 88//14 92//14 91//14
f 99//15 100//15 90//15 89//15
f 89//16 90//16 86//16 85//16
f 97//17 99//17 89//17 85//17
f 98//18 86//18 93//18 101//18
f 101//15 93//15 108//15 103//15
f 86//18 90//18 96//18 93//18
f 92//18 88//18 94//18 95//18
f 100//18 92//18 95//18 102//18
f 90//18 100//18 102//18 96//18
f 93//14 96//14 107//14 108//14
f 88//18 98//18 101//18 94//18
f 87//17 91//17 99//17 97//17
f 91//15 92//15 100//15 99//15
f 85//13 86//13 98//13 97//13
f 106//18 103//18 108//18 107//18
f 105//18 104//18 103//18 106//18
f 95//16 94//16 104//16 105//16
f 102//13 95//13 105//13 106//13
f 96//13 102//13 106//13 107//13
f 94//15 101//15 103//15 104//15
